<?xml version="1.0" encoding="UTF-8"?>
<svg id="uuid-29d1865e-2745-4fca-9da4-cc0194561983" data-name="Layer 4" xmlns="http://www.w3.org/2000/svg" viewBox="0 0 1000 1000">
  <circle cx="500" cy="500" r="500" style="fill: #3e3a51; stroke-width: 0px;"/>
  <g>
    <g>
      <g>
        <path d="M506.99,391.14H175.49c-44.68,0-80.89,36.22-80.89,80.89v214.57c0,44.68,36.22,80.89,80.89,80.89h4.61v69.59l76.25-69.59h250.64c44.68,0,80.89-36.22,80.89-80.89v-214.57c0-44.68-36.22-80.89-80.89-80.89Z" style="fill: #1c8fc7; stroke-width: 0px;"/>
        <path d="M169.25,861.68v-83.55c-47.69-3.22-85.5-43.04-85.5-91.53v-214.57c0-50.59,41.16-91.74,91.74-91.74h331.5c50.59,0,91.74,41.16,91.74,91.74v214.57c0,50.59-41.16,91.74-91.74,91.74h-246.44l-91.3,83.34ZM175.49,401.99c-38.62,0-70.04,31.42-70.04,70.04v214.57c0,38.62,31.42,70.04,70.04,70.04h15.46v55.85l61.19-55.85h254.85c38.62,0,70.04-31.42,70.04-70.04v-214.57c0-38.62-31.42-70.04-70.04-70.04H175.49Z" style="fill: #3e3a51; stroke-width: 0px;"/>
      </g>
      <path d="M306.81,620.84v-16.59c0-8.61.9-16.14,2.7-22.57,1.79-6.43,4.66-12.44,8.58-18.04,3.92-5.59,9.09-11.28,15.53-17.07,5.27-4.76,9.51-8.94,12.73-12.54,3.21-3.6,5.53-7.23,6.94-10.9,1.42-3.67,2.12-8.01,2.12-13.02,0-6.04-1.83-10.71-5.5-13.99-3.67-3.28-9.36-4.92-17.07-4.92-6.82,0-14.21,1.74-22.19,5.21-7.98,3.47-16.53,8.62-25.65,15.43l-20.45-50.16c12.47-9.13,24.92-15.98,37.33-20.55,12.41-4.56,24.85-6.85,37.32-6.85,25.73,0,45.27,6.37,58.65,19.1,13.38,12.73,20.06,29.84,20.06,51.31,0,11.32-1.44,21.12-4.34,29.42-2.89,8.29-7.07,15.85-12.54,22.67-5.47,6.82-12.12,13.69-19.96,20.64-6.56,5.92-11.29,10.61-14.18,14.08-2.89,3.47-4.66,6.63-5.3,9.45-.65,2.83-.97,6.17-.97,10.03v9.84h-53.82ZM297.36,677.51c0-11.83,3.18-20.96,9.55-27.39,6.37-6.43,15.4-9.65,27.1-9.65s20.26,3.22,26.43,9.65c6.17,6.43,9.26,15.56,9.26,27.39s-3.12,20.77-9.36,27.2c-6.24,6.43-15.01,9.65-26.33,9.65s-20.1-3.22-26.72-9.65c-6.63-6.43-9.94-15.5-9.94-27.2Z" style="fill: #f1f1ef; stroke-width: 0px;"/>
    </g>
    <g>
      <g>
        <path d="M493.01,199.08h331.5c44.68,0,80.89,36.22,80.89,80.89v214.57c0,44.68-36.22,80.89-80.89,80.89h-4.61s0,69.59,0,69.59l-76.25-69.59h-250.64c-44.68,0-80.89-36.22-80.89-80.89v-214.57c0-44.68,36.22-80.89,80.89-80.89Z" style="fill: #1c8fc7; stroke-width: 0px;"/>
        <path d="M830.75,669.62l-91.3-83.34h-246.44c-50.59,0-91.74-41.16-91.74-91.74v-214.57c0-50.59,41.16-91.74,91.74-91.74h331.5c50.59,0,91.74,41.16,91.74,91.74v214.57c0,48.49-37.82,88.32-85.5,91.53v83.55ZM493.01,209.93c-38.62,0-70.04,31.42-70.04,70.04v214.57c0,38.62,31.42,70.04,70.04,70.04h254.85l61.19,55.85v-55.85h15.46c38.62,0,70.04-31.42,70.04-70.04v-214.57c0-38.62-31.42-70.04-70.04-70.04h-331.5Z" style="fill: #3e3a51; stroke-width: 0px;"/>
      </g>
      <g>
        <ellipse cx="660.41" cy="510.16" rx="28.45" ry="16.47" style="fill: #3e3a51; stroke-width: 0px;"/>
        <path d="M755.74,332.6c0,58.54-54.48,76.34-54.48,142.29,0,14.63-29.53,12.06-42.28,12.06-14.53,0-40.67-2.21-40.67-19.39,0-56.91-56.09-77.23-56.09-134.97,0-53.44,43.32-96.76,96.76-96.76s96.76,43.32,96.76,96.76Z" style="fill: #f8c949; stroke-width: 0px;"/>
        <path d="M645.39,454.36h-5.76v-79.65h-11.35c-9.43,0-17.11-7.67-17.11-17.11s7.67-17.11,17.11-17.11,17.11,7.68,17.11,17.11v11.35h30.04v-11.35c0-9.43,7.67-17.11,17.11-17.11s17.11,7.68,17.11,17.11-7.68,17.11-17.11,17.11h-11.35v77.41h-5.76v-77.41h-30.04v79.65ZM681.2,368.95h11.35c6.26,0,11.35-5.09,11.35-11.35s-5.09-11.35-11.35-11.35-11.35,5.09-11.35,11.35v11.35ZM628.28,346.25c-6.26,0-11.35,5.09-11.35,11.35s5.09,11.35,11.35,11.35h11.35v-11.35c0-6.26-5.09-11.35-11.35-11.35Z" style="fill: #3e3a51; stroke-width: 0px;"/>
        <rect x="616.29" y="457.23" width="88.12" height="48.97" style="fill: #928f99; stroke-width: 0px;"/>
        <path d="M613.84,463.81c-2.99,0-5.52-2.31-5.74-5.34-.23-3.17,2.15-5.93,5.33-6.16l90.56-6.58c3.17-.25,5.93,2.16,6.16,5.33.23,3.17-2.15,5.93-5.33,6.16l-90.56,6.58c-.14.01-.28.02-.42.02Z" style="fill: #3e3a51; stroke-width: 0px;"/>
        <path d="M613.84,481.09c-2.99,0-5.52-2.31-5.74-5.34-.23-3.17,2.15-5.93,5.33-6.16l90.56-6.58c3.17-.26,5.93,2.15,6.16,5.33.23,3.17-2.15,5.93-5.33,6.16l-90.56,6.58c-.14.01-.28.02-.42.02Z" style="fill: #3e3a51; stroke-width: 0px;"/>
        <path d="M613.84,498.37c-2.99,0-5.52-2.31-5.74-5.34-.23-3.17,2.15-5.93,5.33-6.16l90.56-6.58c3.17-.27,5.93,2.15,6.16,5.33.23,3.17-2.15,5.93-5.33,6.16l-90.56,6.58c-.14.01-.28.02-.42.02Z" style="fill: #3e3a51; stroke-width: 0px;"/>
        <path d="M613.84,515.65c-2.99,0-5.52-2.31-5.74-5.34-.23-3.17,2.15-5.93,5.33-6.16l90.56-6.58c3.17-.28,5.93,2.15,6.16,5.33.23,3.17-2.15,5.93-5.33,6.16l-90.56,6.58c-.14.01-.28.02-.42.02Z" style="fill: #3e3a51; stroke-width: 0px;"/>
      </g>
    </g>
  </g>
</svg>
