<?xml version="1.0" encoding="UTF-8"?>
<svg id="uuid-ddede19f-ca4e-431c-9d47-180e9cc73285" data-name="Layer 3" xmlns="http://www.w3.org/2000/svg" viewBox="0 0 1000 1000">
  <g>
    <circle cx="500" cy="500" r="500" style="fill: #1c8fc7; stroke-width: 0px;"/>
    <g>
      <g>
        <path d="M790.01,540.21l-292.14,29.06-287.86-29.05c-6.06-.61-11.32,4.15-11.32,10.24v291.35c0,5.28,4,9.71,9.26,10.24l248.57,24.96c-.52,1.39-.81,2.83-.81,4.3,0,12.51,19.55,22.66,43.67,22.66s43.67-10.14,43.67-22.66c0-1.47-.29-2.9-.8-4.29l249.81-24.98c5.26-.53,9.26-4.95,9.26-10.24v-291.36c0-6.08-5.25-10.84-11.31-10.24Z" style="fill: #3e3a51; fill-rule: evenodd; stroke-width: 0px;"/>
        <path d="M222.34,827.79c102.28,0,232.85,23.94,277.03,42.94v-303.24c-82.25-44.32-198.61-56.68-277.03-56.68v316.97Z" style="fill: #928f99; fill-rule: evenodd; stroke-width: 0px;"/>
        <path d="M776.41,827.79c-102.28,0-232.85,23.94-277.03,42.94,0-81.69,0-247.83,0-303.24,82.25-44.32,198.61-56.68,277.03-56.68,0,41.54,0,268.35,0,316.97Z" style="fill: #928f99; fill-rule: evenodd; stroke-width: 0px;"/>
        <g>
          <path d="M240.45,796.53c102.28,0,223.32,45.07,259.55,74.19v-306.85c-82.25-44.32-181.13-62.12-259.55-62.12v294.78Z" style="fill: #f1f1ef; fill-rule: evenodd; stroke-width: 0px;"/>
          <g>
            <path d="M472.52,594.52l-.49-.21c-24.33-10.51-98.38-42.5-199.16-50.13l-5.32-.4-.04,12.11,4.45.34c98.76,7.47,171.41,38.86,195.28,49.17l5.06,2.19.22-13.06Z" style="fill: #3e3a51; stroke-width: 0px;"/>
            <path d="M471.86,633.48c-24.49-10.58-98.43-42.45-198.99-50.05l-5.45-.41-.04,12.11,4.57.35c98.76,7.47,171.41,38.86,195.28,49.17l4.4,1.9.22-13.06Z" style="fill: #3e3a51; stroke-width: 0px;"/>
            <path d="M471.2,672.44c-25.12-10.85-98.61-42.23-198.33-49.77l-5.57-.42-.04,12.11,4.7.36c98.77,7.47,171.41,38.86,195.28,49.17l3.74,1.62.22-13.06Z" style="fill: #3e3a51; stroke-width: 0px;"/>
            <path d="M470.54,711.4c-25.72-11.1-98.81-42.01-197.67-49.49l-5.7-.43-.04,12.11,4.83.36c98.77,7.47,171.41,38.86,195.28,49.17l3.08,1.33.22-13.06Z" style="fill: #3e3a51; stroke-width: 0px;"/>
            <path d="M469.88,750.36c-26.31-11.34-99.01-41.79-197.01-49.2l-5.82-.44-.04,12.11,4.95.37c98.77,7.47,171.41,38.86,195.28,49.17l2.42,1.05.22-13.06Z" style="fill: #3e3a51; stroke-width: 0px;"/>
            <path d="M469.22,789.32c-26.85-11.56-99.15-41.57-196.35-48.92l-5.95-.45-.04,12.11,5.08.38c98.77,7.47,171.41,38.86,195.28,49.17l1.76.76.22-13.06Z" style="fill: #3e3a51; stroke-width: 0px;"/>
          </g>
        </g>
        <g>
          <path d="M758.92,796.53c-102.28,0-223.32,45.07-259.55,74.19,0-81.69,0-251.44,0-306.85,82.25-44.32,181.13-62.12,259.55-62.12,0,41.54,0,246.16,0,294.78Z" style="fill: #f1f1ef; fill-rule: evenodd; stroke-width: 0px;"/>
          <g>
            <path d="M526.85,594.52l.49-.21c24.33-10.51,98.38-42.5,199.16-50.13l5.32-.4.04,12.11-4.45.34c-98.76,7.47-171.41,38.86-195.28,49.17l-5.06,2.19-.22-13.06Z" style="fill: #3e3a51; stroke-width: 0px;"/>
            <path d="M527.51,633.48c24.49-10.58,98.43-42.45,198.99-50.05l5.45-.41.04,12.11-4.57.35c-98.76,7.47-171.41,38.86-195.28,49.17l-4.4,1.9-.22-13.06Z" style="fill: #3e3a51; stroke-width: 0px;"/>
            <path d="M528.17,672.44c25.12-10.85,98.61-42.23,198.33-49.77l5.57-.42.04,12.11-4.7.36c-98.77,7.47-171.41,38.86-195.28,49.17l-3.74,1.62-.22-13.06Z" style="fill: #3e3a51; stroke-width: 0px;"/>
            <path d="M528.83,711.4c25.72-11.1,98.81-42.01,197.67-49.49l5.7-.43.04,12.11-4.83.36c-98.77,7.47-171.41,38.86-195.28,49.17l-3.08,1.33-.22-13.06Z" style="fill: #3e3a51; stroke-width: 0px;"/>
            <path d="M529.49,750.36c26.31-11.34,99.01-41.79,197.01-49.2l5.82-.44.04,12.11-4.95.37c-98.77,7.47-171.41,38.86-195.28,49.17l-2.42,1.05-.22-13.06Z" style="fill: #3e3a51; stroke-width: 0px;"/>
            <path d="M530.15,789.32c26.85-11.56,99.15-41.57,196.35-48.92l5.95-.45.04,12.11-5.08.38c-98.77,7.47-171.41,38.86-195.28,49.17l-1.76.76-.22-13.06Z" style="fill: #3e3a51; stroke-width: 0px;"/>
          </g>
        </g>
        <line x1="499.37" y1="563.87" x2="499.37" y2="870.72" style="fill: none; stroke: #928f99; stroke-miterlimit: 10;"/>
      </g>
      <g>
        <ellipse cx="499.25" cy="471.55" rx="35.72" ry="20.68" style="fill: #3e3a51; stroke-width: 0px;"/>
        <path d="M618.97,248.55c0,73.52-68.42,95.88-68.42,178.7,0,18.38-37.08,15.15-53.1,15.15-18.24,0-51.07-2.77-51.07-24.35,0-71.47-70.44-97-70.44-169.5,0-67.11,54.41-121.52,121.52-121.52s121.52,54.41,121.52,121.52Z" style="fill: #f8c949; stroke-width: 0px;"/>
        <path d="M480.39,401.47h-7.23v-100.03h-14.25c-11.85,0-21.49-9.64-21.49-21.49s9.64-21.49,21.49-21.49,21.49,9.64,21.49,21.49v14.25h37.73v-14.25c0-11.85,9.64-21.49,21.49-21.49s21.49,9.64,21.49,21.49-9.64,21.49-21.49,21.49h-14.25v97.22h-7.23v-97.22h-37.73v100.03ZM525.35,294.2h14.25c7.86,0,14.25-6.39,14.25-14.25s-6.39-14.25-14.25-14.25-14.25,6.39-14.25,14.25v14.25ZM458.9,265.7c-7.86,0-14.25,6.39-14.25,14.25s6.39,14.25,14.25,14.25h14.25v-14.25c0-7.86-6.39-14.25-14.25-14.25Z" style="fill: #3e3a51; stroke-width: 0px;"/>
        <path d="M611.35,145.49c-2.31,0-4.63-.88-6.39-2.65-3.53-3.53-3.53-9.26,0-12.79l35.38-35.38c3.53-3.53,9.25-3.53,12.79,0,3.53,3.53,3.53,9.26,0,12.79l-35.38,35.38c-1.77,1.77-4.08,2.65-6.39,2.65Z" style="fill: #f8c949; stroke-width: 0px;"/>
        <path d="M707.82,257.59h-50.04c-4.99,0-9.04-4.05-9.04-9.04s4.05-9.04,9.04-9.04h50.04c4.99,0,9.04,4.05,9.04,9.04s-4.05,9.04-9.04,9.04Z" style="fill: #f8c949; stroke-width: 0px;"/>
        <path d="M646.73,405.07c-2.31,0-4.63-.88-6.39-2.65l-35.38-35.38c-3.53-3.53-3.53-9.26,0-12.79,3.53-3.53,9.25-3.53,12.79,0l35.38,35.38c3.53,3.53,3.53,9.26,0,12.79-1.77,1.77-4.08,2.65-6.39,2.65Z" style="fill: #f8c949; stroke-width: 0px;"/>
        <path d="M387.15,145.49c-2.31,0-4.63-.88-6.39-2.65l-35.38-35.38c-3.53-3.53-3.53-9.26,0-12.79,3.53-3.53,9.26-3.53,12.79,0l35.38,35.38c3.53,3.53,3.53,9.26,0,12.79-1.76,1.77-4.08,2.65-6.39,2.65Z" style="fill: #f8c949; stroke-width: 0px;"/>
        <path d="M340.72,257.59h-50.04c-4.99,0-9.04-4.05-9.04-9.04s4.05-9.04,9.04-9.04h50.04c4.99,0,9.04,4.05,9.04,9.04s-4.05,9.04-9.04,9.04Z" style="fill: #f8c949; stroke-width: 0px;"/>
        <path d="M351.77,405.07c-2.31,0-4.63-.88-6.39-2.65-3.53-3.53-3.53-9.26,0-12.79l35.38-35.38c3.53-3.53,9.26-3.53,12.79,0,3.53,3.53,3.53,9.26,0,12.79l-35.38,35.38c-1.76,1.77-4.08,2.65-6.39,2.65Z" style="fill: #f8c949; stroke-width: 0px;"/>
        <path d="M499.25,99.06c-4.99,0-9.04-4.05-9.04-9.04v-50.04c0-4.99,4.05-9.04,9.04-9.04s9.04,4.05,9.04,9.04v50.04c0,4.99-4.05,9.04-9.04,9.04Z" style="fill: #f8c949; stroke-width: 0px;"/>
        <rect x="443.84" y="405.07" width="110.67" height="61.49" style="fill: #928f99; stroke-width: 0px;"/>
        <path d="M440.77,413.34c-3.76,0-6.93-2.9-7.21-6.71-.29-3.98,2.71-7.45,6.69-7.74l113.73-8.27c3.98-.32,7.45,2.71,7.74,6.69.29,3.98-2.71,7.45-6.69,7.74l-113.73,8.27c-.18.01-.36.02-.53.02Z" style="fill: #3e3a51; stroke-width: 0px;"/>
        <path d="M440.77,435.04c-3.76,0-6.93-2.9-7.21-6.71-.29-3.98,2.71-7.45,6.69-7.74l113.73-8.27c3.98-.33,7.45,2.71,7.74,6.69s-2.71,7.45-6.69,7.74l-113.73,8.27c-.18.01-.36.02-.53.02Z" style="fill: #3e3a51; stroke-width: 0px;"/>
        <path d="M440.77,456.74c-3.76,0-6.93-2.9-7.21-6.71-.29-3.98,2.71-7.45,6.69-7.74l113.73-8.27c3.98-.34,7.45,2.71,7.74,6.69s-2.71,7.45-6.69,7.74l-113.73,8.27c-.18.01-.36.02-.53.02Z" style="fill: #3e3a51; stroke-width: 0px;"/>
        <path d="M440.77,478.44c-3.76,0-6.93-2.9-7.21-6.71-.29-3.98,2.71-7.45,6.69-7.74l113.73-8.27c3.98-.35,7.45,2.71,7.74,6.69s-2.71,7.45-6.69,7.74l-113.73,8.27c-.18.01-.36.02-.53.02Z" style="fill: #3e3a51; stroke-width: 0px;"/>
      </g>
    </g>
  </g>
  <g>
    <circle cx="500" cy="500" r="500" style="fill: #1c8fc7; stroke-width: 0px;"/>
    <g>
      <g>
        <path d="M790.01,540.21l-292.14,29.06-287.86-29.05c-6.06-.61-11.32,4.15-11.32,10.24v291.35c0,5.28,4,9.71,9.26,10.24l248.57,24.96c-.52,1.39-.81,2.83-.81,4.3,0,12.51,19.55,22.66,43.67,22.66s43.67-10.14,43.67-22.66c0-1.47-.29-2.9-.8-4.29l249.81-24.98c5.26-.53,9.26-4.95,9.26-10.24v-291.36c0-6.08-5.25-10.84-11.31-10.24Z" style="fill: #3e3a51; fill-rule: evenodd; stroke-width: 0px;"/>
        <path d="M222.34,827.79c102.28,0,232.85,23.94,277.03,42.94v-303.24c-82.25-44.32-198.61-56.68-277.03-56.68v316.97Z" style="fill: #928f99; fill-rule: evenodd; stroke-width: 0px;"/>
        <path d="M776.41,827.79c-102.28,0-232.85,23.94-277.03,42.94,0-81.69,0-247.83,0-303.24,82.25-44.32,198.61-56.68,277.03-56.68,0,41.54,0,268.35,0,316.97Z" style="fill: #928f99; fill-rule: evenodd; stroke-width: 0px;"/>
        <g>
          <path d="M240.45,796.53c102.28,0,223.32,45.07,259.55,74.19v-306.85c-82.25-44.32-181.13-62.12-259.55-62.12v294.78Z" style="fill: #f1f1ef; fill-rule: evenodd; stroke-width: 0px;"/>
          <g>
            <path d="M472.52,594.52l-.49-.21c-24.33-10.51-98.38-42.5-199.16-50.13l-5.32-.4-.04,12.11,4.45.34c98.76,7.47,171.41,38.86,195.28,49.17l5.06,2.19.22-13.06Z" style="fill: #3e3a51; stroke-width: 0px;"/>
            <path d="M471.86,633.48c-24.49-10.58-98.43-42.45-198.99-50.05l-5.45-.41-.04,12.11,4.57.35c98.76,7.47,171.41,38.86,195.28,49.17l4.4,1.9.22-13.06Z" style="fill: #3e3a51; stroke-width: 0px;"/>
            <path d="M471.2,672.44c-25.12-10.85-98.61-42.23-198.33-49.77l-5.57-.42-.04,12.11,4.7.36c98.77,7.47,171.41,38.86,195.28,49.17l3.74,1.62.22-13.06Z" style="fill: #3e3a51; stroke-width: 0px;"/>
            <path d="M470.54,711.4c-25.72-11.1-98.81-42.01-197.67-49.49l-5.7-.43-.04,12.11,4.83.36c98.77,7.47,171.41,38.86,195.28,49.17l3.08,1.33.22-13.06Z" style="fill: #3e3a51; stroke-width: 0px;"/>
            <path d="M469.88,750.36c-26.31-11.34-99.01-41.79-197.01-49.2l-5.82-.44-.04,12.11,4.95.37c98.77,7.47,171.41,38.86,195.28,49.17l2.42,1.05.22-13.06Z" style="fill: #3e3a51; stroke-width: 0px;"/>
            <path d="M469.22,789.32c-26.85-11.56-99.15-41.57-196.35-48.92l-5.95-.45-.04,12.11,5.08.38c98.77,7.47,171.41,38.86,195.28,49.17l1.76.76.22-13.06Z" style="fill: #3e3a51; stroke-width: 0px;"/>
          </g>
        </g>
        <g>
          <path d="M758.92,796.53c-102.28,0-223.32,45.07-259.55,74.19,0-81.69,0-251.44,0-306.85,82.25-44.32,181.13-62.12,259.55-62.12,0,41.54,0,246.16,0,294.78Z" style="fill: #f1f1ef; fill-rule: evenodd; stroke-width: 0px;"/>
          <g>
            <path d="M526.85,594.52l.49-.21c24.33-10.51,98.38-42.5,199.16-50.13l5.32-.4.04,12.11-4.45.34c-98.76,7.47-171.41,38.86-195.28,49.17l-5.06,2.19-.22-13.06Z" style="fill: #3e3a51; stroke-width: 0px;"/>
            <path d="M527.51,633.48c24.49-10.58,98.43-42.45,198.99-50.05l5.45-.41.04,12.11-4.57.35c-98.76,7.47-171.41,38.86-195.28,49.17l-4.4,1.9-.22-13.06Z" style="fill: #3e3a51; stroke-width: 0px;"/>
            <path d="M528.17,672.44c25.12-10.85,98.61-42.23,198.33-49.77l5.57-.42.04,12.11-4.7.36c-98.77,7.47-171.41,38.86-195.28,49.17l-3.74,1.62-.22-13.06Z" style="fill: #3e3a51; stroke-width: 0px;"/>
            <path d="M528.83,711.4c25.72-11.1,98.81-42.01,197.67-49.49l5.7-.43.04,12.11-4.83.36c-98.77,7.47-171.41,38.86-195.28,49.17l-3.08,1.33-.22-13.06Z" style="fill: #3e3a51; stroke-width: 0px;"/>
            <path d="M529.49,750.36c26.31-11.34,99.01-41.79,197.01-49.2l5.82-.44.04,12.11-4.95.37c-98.77,7.47-171.41,38.86-195.28,49.17l-2.42,1.05-.22-13.06Z" style="fill: #3e3a51; stroke-width: 0px;"/>
            <path d="M530.15,789.32c26.85-11.56,99.15-41.57,196.35-48.92l5.95-.45.04,12.11-5.08.38c-98.77,7.47-171.41,38.86-195.28,49.17l-1.76.76-.22-13.06Z" style="fill: #3e3a51; stroke-width: 0px;"/>
          </g>
        </g>
        <line x1="499.37" y1="563.87" x2="499.37" y2="870.72" style="fill: none; stroke: #928f99; stroke-miterlimit: 10;"/>
      </g>
      <g>
        <ellipse cx="499.25" cy="471.55" rx="35.72" ry="20.68" style="fill: #3e3a51; stroke-width: 0px;"/>
        <path d="M618.97,248.55c0,73.52-68.42,95.88-68.42,178.7,0,18.38-37.08,15.15-53.1,15.15-18.24,0-51.07-2.77-51.07-24.35,0-71.47-70.44-97-70.44-169.5,0-67.11,54.41-121.52,121.52-121.52s121.52,54.41,121.52,121.52Z" style="fill: #f8c949; stroke-width: 0px;"/>
        <path d="M480.39,401.47h-7.23v-100.03h-14.25c-11.85,0-21.49-9.64-21.49-21.49s9.64-21.49,21.49-21.49,21.49,9.64,21.49,21.49v14.25h37.73v-14.25c0-11.85,9.64-21.49,21.49-21.49s21.49,9.64,21.49,21.49-9.64,21.49-21.49,21.49h-14.25v97.22h-7.23v-97.22h-37.73v100.03ZM525.35,294.2h14.25c7.86,0,14.25-6.39,14.25-14.25s-6.39-14.25-14.25-14.25-14.25,6.39-14.25,14.25v14.25ZM458.9,265.7c-7.86,0-14.25,6.39-14.25,14.25s6.39,14.25,14.25,14.25h14.25v-14.25c0-7.86-6.39-14.25-14.25-14.25Z" style="fill: #3e3a51; stroke-width: 0px;"/>
        <path d="M611.35,145.49c-2.31,0-4.63-.88-6.39-2.65-3.53-3.53-3.53-9.26,0-12.79l35.38-35.38c3.53-3.53,9.25-3.53,12.79,0,3.53,3.53,3.53,9.26,0,12.79l-35.38,35.38c-1.77,1.77-4.08,2.65-6.39,2.65Z" style="fill: #f8c949; stroke-width: 0px;"/>
        <path d="M707.82,257.59h-50.04c-4.99,0-9.04-4.05-9.04-9.04s4.05-9.04,9.04-9.04h50.04c4.99,0,9.04,4.05,9.04,9.04s-4.05,9.04-9.04,9.04Z" style="fill: #f8c949; stroke-width: 0px;"/>
        <path d="M646.73,405.07c-2.31,0-4.63-.88-6.39-2.65l-35.38-35.38c-3.53-3.53-3.53-9.26,0-12.79,3.53-3.53,9.25-3.53,12.79,0l35.38,35.38c3.53,3.53,3.53,9.26,0,12.79-1.77,1.77-4.08,2.65-6.39,2.65Z" style="fill: #f8c949; stroke-width: 0px;"/>
        <path d="M387.15,145.49c-2.31,0-4.63-.88-6.39-2.65l-35.38-35.38c-3.53-3.53-3.53-9.26,0-12.79,3.53-3.53,9.26-3.53,12.79,0l35.38,35.38c3.53,3.53,3.53,9.26,0,12.79-1.76,1.77-4.08,2.65-6.39,2.65Z" style="fill: #f8c949; stroke-width: 0px;"/>
        <path d="M340.72,257.59h-50.04c-4.99,0-9.04-4.05-9.04-9.04s4.05-9.04,9.04-9.04h50.04c4.99,0,9.04,4.05,9.04,9.04s-4.05,9.04-9.04,9.04Z" style="fill: #f8c949; stroke-width: 0px;"/>
        <path d="M351.77,405.07c-2.31,0-4.63-.88-6.39-2.65-3.53-3.53-3.53-9.26,0-12.79l35.38-35.38c3.53-3.53,9.26-3.53,12.79,0,3.53,3.53,3.53,9.26,0,12.79l-35.38,35.38c-1.76,1.77-4.08,2.65-6.39,2.65Z" style="fill: #f8c949; stroke-width: 0px;"/>
        <path d="M499.25,99.06c-4.99,0-9.04-4.05-9.04-9.04v-50.04c0-4.99,4.05-9.04,9.04-9.04s9.04,4.05,9.04,9.04v50.04c0,4.99-4.05,9.04-9.04,9.04Z" style="fill: #f8c949; stroke-width: 0px;"/>
        <rect x="443.84" y="405.07" width="110.67" height="61.49" style="fill: #928f99; stroke-width: 0px;"/>
        <path d="M440.77,413.34c-3.76,0-6.93-2.9-7.21-6.71-.29-3.98,2.71-7.45,6.69-7.74l113.73-8.27c3.98-.32,7.45,2.71,7.74,6.69.29,3.98-2.71,7.45-6.69,7.74l-113.73,8.27c-.18.01-.36.02-.53.02Z" style="fill: #3e3a51; stroke-width: 0px;"/>
        <path d="M440.77,435.04c-3.76,0-6.93-2.9-7.21-6.71-.29-3.98,2.71-7.45,6.69-7.74l113.73-8.27c3.98-.33,7.45,2.71,7.74,6.69s-2.71,7.45-6.69,7.74l-113.73,8.27c-.18.01-.36.02-.53.02Z" style="fill: #3e3a51; stroke-width: 0px;"/>
        <path d="M440.77,456.74c-3.76,0-6.93-2.9-7.21-6.71-.29-3.98,2.71-7.45,6.69-7.74l113.73-8.27c3.98-.34,7.45,2.71,7.74,6.69s-2.71,7.45-6.69,7.74l-113.73,8.27c-.18.01-.36.02-.53.02Z" style="fill: #3e3a51; stroke-width: 0px;"/>
        <path d="M440.77,478.44c-3.76,0-6.93-2.9-7.21-6.71-.29-3.98,2.71-7.45,6.69-7.74l113.73-8.27c3.98-.35,7.45,2.71,7.74,6.69s-2.71,7.45-6.69,7.74l-113.73,8.27c-.18.01-.36.02-.53.02Z" style="fill: #3e3a51; stroke-width: 0px;"/>
      </g>
    </g>
  </g>
</svg>
