<?xml version="1.0" encoding="UTF-8"?>
<svg id="uuid-4df89419-3582-47cd-9170-41d6b6231f15" data-name="Layer 2" xmlns="http://www.w3.org/2000/svg" viewBox="0 0 1000 1000">
  <g>
    <circle cx="500" cy="500" r="500" style="fill: #f1f1ef; stroke-width: 0px;"/>
    <g>
      <g>
        <rect x="572.93" y="316.15" width="327.79" height="404.38" rx="5.51" ry="5.51" style="fill: #3e3a51; stroke-width: 0px;"/>
        <rect x="603.3" y="340.4" width="267.03" height="350.77" rx="1.06" ry="1.06" style="fill: #f1f1ef; stroke-width: 0px;"/>
        <path d="M787.37,306.96h-21.2c-1.02-15.32-13.77-27.49-29.34-27.49s-28.33,12.16-29.34,27.49h-21.2c-11,0-19.91,8.92-19.91,19.91v9.19c0,11,8.92,19.91,19.91,19.91h101.1c11,0,19.91-8.92,19.91-19.91v-9.19c0-11-8.92-19.91-19.91-19.91ZM736.82,293.94c7.59,0,13.81,5.69,14.78,13.02h-29.56c.97-7.33,7.19-13.02,14.78-13.02Z" style="fill: #928f99; stroke-width: 0px;"/>
        <path d="M645.17,431.09c-1.54,0-3-.65-4.03-1.8l-13.78-15.32c-2-2.23-1.82-5.66.4-7.66s5.66-1.82,7.66.4l9.59,10.66,21.52-25.82c1.92-2.3,5.34-2.61,7.64-.69,2.3,1.92,2.61,5.34.69,7.64l-25.53,30.64c-1.01,1.21-2.49,1.92-4.07,1.95h-.1Z" style="fill: #1c8fc7; stroke-width: 0px;"/>
        <path d="M842.26,419.61h-146.66c-3,0-5.42-2.43-5.42-5.42s2.43-5.42,5.42-5.42h146.66c3,0,5.42,2.43,5.42,5.42s-2.43,5.42-5.42,5.42Z" style="fill: #3e3a51; stroke-width: 0px;"/>
        <path d="M645.17,497.18c-1.54,0-3-.65-4.03-1.8l-13.78-15.32c-2-2.23-1.82-5.65.4-7.66,2.23-2,5.66-1.83,7.66.41l9.6,10.66,21.52-25.82c1.92-2.3,5.34-2.61,7.64-.7,2.3,1.92,2.61,5.34.69,7.64l-25.53,30.64c-1.01,1.21-2.49,1.92-4.07,1.95h-.1Z" style="fill: #1c8fc7; stroke-width: 0px;"/>
        <path d="M842.26,485.7h-146.66c-3,0-5.42-2.43-5.42-5.42s2.43-5.42,5.42-5.42h146.66c3,0,5.42,2.43,5.42,5.42s-2.43,5.42-5.42,5.42Z" style="fill: #3e3a51; stroke-width: 0px;"/>
        <path d="M645.17,563.27c-1.54,0-3-.65-4.03-1.8l-13.78-15.32c-2-2.23-1.82-5.65.4-7.66s5.66-1.83,7.66.41l9.6,10.66,21.52-25.82c1.92-2.31,5.34-2.61,7.64-.7,2.3,1.92,2.61,5.34.69,7.64l-25.53,30.64c-1.01,1.21-2.49,1.92-4.07,1.95h-.1Z" style="fill: #1c8fc7; stroke-width: 0px;"/>
        <path d="M842.26,551.79h-146.66c-3,0-5.42-2.43-5.42-5.42s2.43-5.42,5.42-5.42h146.66c3,0,5.42,2.43,5.42,5.42s-2.43,5.42-5.42,5.42Z" style="fill: #3e3a51; stroke-width: 0px;"/>
        <path d="M645.17,629.37c-1.54,0-3-.65-4.03-1.8l-13.78-15.32c-2-2.23-1.82-5.65.4-7.66,2.23-2,5.66-1.83,7.66.41l9.6,10.66,21.52-25.82c1.92-2.31,5.34-2.61,7.64-.7,2.3,1.92,2.61,5.34.69,7.64l-25.53,30.64c-1.01,1.21-2.49,1.92-4.07,1.95h-.1Z" style="fill: #1c8fc7; stroke-width: 0px;"/>
        <path d="M842.26,617.88h-146.66c-3,0-5.42-2.43-5.42-5.42s2.43-5.42,5.42-5.42h146.66c3,0,5.42,2.43,5.42,5.42s-2.43,5.42-5.42,5.42Z" style="fill: #3e3a51; stroke-width: 0px;"/>
      </g>
      <g>
        <path d="M508.44,475.42l-37.93-10.17c-3.52-12.2-8.35-23.83-14.37-34.73l19.62-34c2.33-4.04,1.66-9.15-1.64-12.45l-38.15-38.15c-3.3-3.3-8.41-3.97-12.45-1.64l-34,19.62c-10.9-6.02-22.53-10.85-34.73-14.37l-10.17-37.93c-1.21-4.51-5.3-7.65-9.97-7.65h-53.95c-4.67,0-8.76,3.14-9.97,7.65l-10.17,37.93c-12.2,3.52-23.83,8.35-34.73,14.37l-33.99-19.62c-4.04-2.33-9.15-1.66-12.45,1.64l-38.15,38.15c-3.3,3.3-3.97,8.41-1.64,12.45l19.62,34c-6.02,10.9-10.85,22.53-14.37,34.73l-37.93,10.17c-4.51,1.21-7.65,5.3-7.65,9.97v53.95c0,4.67,3.14,8.76,7.65,9.97l37.93,10.17c3.52,12.2,8.35,23.83,14.37,34.73l-19.62,34c-2.33,4.04-1.66,9.15,1.64,12.45l38.15,38.15c3.3,3.3,8.41,3.97,12.45,1.64l34-19.62c10.9,6.02,22.53,10.85,34.73,14.37l10.17,37.93c1.21,4.51,5.3,7.65,9.97,7.65h53.95c4.67,0,8.76-3.14,9.97-7.65l10.17-37.93c12.2-3.52,23.83-8.35,34.73-14.37l34,19.62c4.04,2.33,9.15,1.66,12.45-1.64l38.15-38.15c3.3-3.3,3.97-8.41,1.64-12.45l-19.62-34c6.02-10.9,10.85-22.53,14.37-34.73l37.93-10.17c4.51-1.21,7.65-5.3,7.65-9.97v-53.95c0-4.67-3.14-8.76-7.65-9.97ZM307.69,610.01c-53.93,0-97.65-43.72-97.65-97.65s43.72-97.65,97.65-97.65,97.65,43.72,97.65,97.65-43.72,97.65-97.65,97.65Z" style="fill: #3e3a51; stroke-width: 0px;"/>
        <path d="M508.65,467.05c30.12-30.12,39.05-73.34,26.95-111.31l-56.67,56.67-56.23-15.07-15.07-56.22,56.67-56.67c-37.97-12.1-81.19-3.17-111.31,26.95-29.96,29.96-38.97,72.86-27.17,110.68l-210.42,210.42c-19.92,19.92-19.92,52.22,0,72.14,19.92,19.92,52.22,19.92,72.14,0l210.42-210.42c37.82,11.8,80.73,2.78,110.68-27.17ZM131.62,688.43c-10.97-10.97-10.97-28.75,0-39.72,10.97-10.97,28.75-10.97,39.72,0,10.97,10.97,10.97,28.75,0,39.72s-28.75,10.97-39.72,0Z" style="fill: #f7c646; stroke-width: 0px;"/>
      </g>
    </g>
  </g>
  <g>
    <circle cx="500" cy="500" r="500" style="fill: #f1f1ef; stroke-width: 0px;"/>
    <g>
      <g>
        <rect x="572.93" y="316.15" width="327.79" height="404.38" rx="5.51" ry="5.51" style="fill: #3e3a51; stroke-width: 0px;"/>
        <rect x="603.3" y="340.4" width="267.03" height="350.77" rx="1.06" ry="1.06" style="fill: #f1f1ef; stroke-width: 0px;"/>
        <path d="M787.37,306.96h-21.2c-1.02-15.32-13.77-27.49-29.34-27.49s-28.33,12.16-29.34,27.49h-21.2c-11,0-19.91,8.92-19.91,19.91v9.19c0,11,8.92,19.91,19.91,19.91h101.1c11,0,19.91-8.92,19.91-19.91v-9.19c0-11-8.92-19.91-19.91-19.91ZM736.82,293.94c7.59,0,13.81,5.69,14.78,13.02h-29.56c.97-7.33,7.19-13.02,14.78-13.02Z" style="fill: #928f99; stroke-width: 0px;"/>
        <path d="M645.17,431.09c-1.54,0-3-.65-4.03-1.8l-13.78-15.32c-2-2.23-1.82-5.66.4-7.66s5.66-1.82,7.66.4l9.59,10.66,21.52-25.82c1.92-2.3,5.34-2.61,7.64-.69,2.3,1.92,2.61,5.34.69,7.64l-25.53,30.64c-1.01,1.21-2.49,1.92-4.07,1.95h-.1Z" style="fill: #1c8fc7; stroke-width: 0px;"/>
        <path d="M842.26,419.61h-146.66c-3,0-5.42-2.43-5.42-5.42s2.43-5.42,5.42-5.42h146.66c3,0,5.42,2.43,5.42,5.42s-2.43,5.42-5.42,5.42Z" style="fill: #3e3a51; stroke-width: 0px;"/>
        <path d="M645.17,497.18c-1.54,0-3-.65-4.03-1.8l-13.78-15.32c-2-2.23-1.82-5.65.4-7.66,2.23-2,5.66-1.83,7.66.41l9.6,10.66,21.52-25.82c1.92-2.3,5.34-2.61,7.64-.7,2.3,1.92,2.61,5.34.69,7.64l-25.53,30.64c-1.01,1.21-2.49,1.92-4.07,1.95h-.1Z" style="fill: #1c8fc7; stroke-width: 0px;"/>
        <path d="M842.26,485.7h-146.66c-3,0-5.42-2.43-5.42-5.42s2.43-5.42,5.42-5.42h146.66c3,0,5.42,2.43,5.42,5.42s-2.43,5.42-5.42,5.42Z" style="fill: #3e3a51; stroke-width: 0px;"/>
        <path d="M645.17,563.27c-1.54,0-3-.65-4.03-1.8l-13.78-15.32c-2-2.23-1.82-5.65.4-7.66s5.66-1.83,7.66.41l9.6,10.66,21.52-25.82c1.92-2.31,5.34-2.61,7.64-.7,2.3,1.92,2.61,5.34.69,7.64l-25.53,30.64c-1.01,1.21-2.49,1.92-4.07,1.95h-.1Z" style="fill: #1c8fc7; stroke-width: 0px;"/>
        <path d="M842.26,551.79h-146.66c-3,0-5.42-2.43-5.42-5.42s2.43-5.42,5.42-5.42h146.66c3,0,5.42,2.43,5.42,5.42s-2.43,5.42-5.42,5.42Z" style="fill: #3e3a51; stroke-width: 0px;"/>
        <path d="M645.17,629.37c-1.54,0-3-.65-4.03-1.8l-13.78-15.32c-2-2.23-1.82-5.65.4-7.66,2.23-2,5.66-1.83,7.66.41l9.6,10.66,21.52-25.82c1.92-2.31,5.34-2.61,7.64-.7,2.3,1.92,2.61,5.34.69,7.64l-25.53,30.64c-1.01,1.21-2.49,1.92-4.07,1.95h-.1Z" style="fill: #1c8fc7; stroke-width: 0px;"/>
        <path d="M842.26,617.88h-146.66c-3,0-5.42-2.43-5.42-5.42s2.43-5.42,5.42-5.42h146.66c3,0,5.42,2.43,5.42,5.42s-2.43,5.42-5.42,5.42Z" style="fill: #3e3a51; stroke-width: 0px;"/>
      </g>
      <g>
        <path d="M508.44,475.42l-37.93-10.17c-3.52-12.2-8.35-23.83-14.37-34.73l19.62-34c2.33-4.04,1.66-9.15-1.64-12.45l-38.15-38.15c-3.3-3.3-8.41-3.97-12.45-1.64l-34,19.62c-10.9-6.02-22.53-10.85-34.73-14.37l-10.17-37.93c-1.21-4.51-5.3-7.65-9.97-7.65h-53.95c-4.67,0-8.76,3.14-9.97,7.65l-10.17,37.93c-12.2,3.52-23.83,8.35-34.73,14.37l-33.99-19.62c-4.04-2.33-9.15-1.66-12.45,1.64l-38.15,38.15c-3.3,3.3-3.97,8.41-1.64,12.45l19.62,34c-6.02,10.9-10.85,22.53-14.37,34.73l-37.93,10.17c-4.51,1.21-7.65,5.3-7.65,9.97v53.95c0,4.67,3.14,8.76,7.65,9.97l37.93,10.17c3.52,12.2,8.35,23.83,14.37,34.73l-19.62,34c-2.33,4.04-1.66,9.15,1.64,12.45l38.15,38.15c3.3,3.3,8.41,3.97,12.45,1.64l34-19.62c10.9,6.02,22.53,10.85,34.73,14.37l10.17,37.93c1.21,4.51,5.3,7.65,9.97,7.65h53.95c4.67,0,8.76-3.14,9.97-7.65l10.17-37.93c12.2-3.52,23.83-8.35,34.73-14.37l34,19.62c4.04,2.33,9.15,1.66,12.45-1.64l38.15-38.15c3.3-3.3,3.97-8.41,1.64-12.45l-19.62-34c6.02-10.9,10.85-22.53,14.37-34.73l37.93-10.17c4.51-1.21,7.65-5.3,7.65-9.97v-53.95c0-4.67-3.14-8.76-7.65-9.97ZM307.69,610.01c-53.93,0-97.65-43.72-97.65-97.65s43.72-97.65,97.65-97.65,97.65,43.72,97.65,97.65-43.72,97.65-97.65,97.65Z" style="fill: #3e3a51; stroke-width: 0px;"/>
        <path d="M508.65,467.05c30.12-30.12,39.05-73.34,26.95-111.31l-56.67,56.67-56.23-15.07-15.07-56.22,56.67-56.67c-37.97-12.1-81.19-3.17-111.31,26.95-29.96,29.96-38.97,72.86-27.17,110.68l-210.42,210.42c-19.92,19.92-19.92,52.22,0,72.14,19.92,19.92,52.22,19.92,72.14,0l210.42-210.42c37.82,11.8,80.73,2.78,110.68-27.17ZM131.62,688.43c-10.97-10.97-10.97-28.75,0-39.72,10.97-10.97,28.75-10.97,39.72,0,10.97,10.97,10.97,28.75,0,39.72s-28.75,10.97-39.72,0Z" style="fill: #f7c646; stroke-width: 0px;"/>
      </g>
    </g>
  </g>
</svg>
