<?xml version="1.0" encoding="UTF-8" standalone="no"?>
<svg
   width="200"
   height="200"
   viewBox="0 0 200 200"
   version="1.1"
   id="svg15"
   sodipodi:docname="logo.svg"
   xml:space="preserve"
   inkscape:version="1.4.2 (ebf0e940d0, 2025-05-08)"
   xmlns:inkscape="http://www.inkscape.org/namespaces/inkscape"
   xmlns:sodipodi="http://sodipodi.sourceforge.net/DTD/sodipodi-0.dtd"
   xmlns:xlink="http://www.w3.org/1999/xlink"
   xmlns="http://www.w3.org/2000/svg"
   xmlns:svg="http://www.w3.org/2000/svg"><defs
     id="defs15"><linearGradient
       id="linearGradient17"
       inkscape:collect="always"><stop
         style="stop-color:#ffffff;stop-opacity:0.26026785;"
         offset="0"
         id="stop17" /><stop
         style="stop-color:#ffffff;stop-opacity:0;"
         offset="1"
         id="stop18" /></linearGradient><linearGradient
       inkscape:collect="always"
       xlink:href="#linearGradient17"
       id="linearGradient18"
       x1="18"
       y1="-16.75"
       x2="153.5"
       y2="-154.5"
       gradientUnits="userSpaceOnUse" /></defs><sodipodi:namedview
     id="namedview15"
     pagecolor="#ffffff"
     bordercolor="#000000"
     borderopacity="0.25"
     inkscape:showpageshadow="2"
     inkscape:pageopacity="0.0"
     inkscape:pagecheckerboard="0"
     inkscape:deskcolor="#d1d1d1"
     inkscape:zoom="4"
     inkscape:cx="107.75"
     inkscape:cy="100"
     inkscape:window-width="1920"
     inkscape:window-height="1011"
     inkscape:window-x="0"
     inkscape:window-y="0"
     inkscape:window-maximized="1"
     inkscape:current-layer="svg15" /><circle
     style="fill:#000000;stroke-width:2.41692"
     id="path16"
     cx="100"
     cy="-100"
     transform="scale(1,-1)"
     r="100"
     inkscape:label="black" /><circle
     style="fill:#1c8fc7;fill-opacity:1;stroke-width:2.142"
     id="path16-6"
     cx="100"
     cy="-100"
     r="88.625"
     transform="scale(1,-1)"
     inkscape:label="blue" /><circle
     style="fill:url(#linearGradient18);fill-opacity:1;stroke-width:2.142"
     id="circle16"
     cx="100"
     cy="-100"
     r="88.625"
     transform="scale(1,-1)"
     inkscape:label="gradient" /><path
     id="path6"
     d="m 132.53709,112.63988 v 0 c 0.94467,0.47384 0.94467,0.47384 0,0 z M 84.983835,18.9372 c -0.459176,0 -0.936594,0.488888 -0.936594,1.197772 -0.466322,2.350419 -0.707948,4.469554 -0.466322,6.58493 -1.414576,-0.932647 -2.83009,-1.887857 -4.480459,-2.5817 -0.466512,0 -0.937344,0.235043 -1.172951,0.693843 -0.707382,0.477605 -0.943176,1.17897 -1.184797,1.887857 0,1.173326 0,2.121016 0,3.294343 0,1.882215 0,3.768187 0,5.654163 -0.460498,0 -0.701554,0 -0.932085,-0.470084 -1.645289,-2.122897 -3.53747,-3.301864 -6.114072,-3.519983 -0.229909,0 -0.229909,0 -0.229909,0.218119 -2.127126,4.478953 -1.886934,9.183545 0.690441,13.895664 0,0.470084 0,0.707005 0,1.173328 -1.415384,1.408369 -3.060677,2.829902 -4.705967,4.243912 -0.235043,0.707006 -0.235043,1.402728 0,2.111615 0,0.477604 0.232089,1.178967 0.472283,1.656574 -0.472283,0.223758 -0.707326,0.695724 -0.707326,0.930764 -1.16199,3.296224 -1.16199,6.592449 0.467132,9.657394 -0.232089,0.235041 -0.232089,0.466322 -0.232089,0.466322 -0.464219,0.235041 -0.941633,0.712647 -1.172276,1.17897 -0.224757,0.712646 -0.224757,1.654694 -0.464951,2.352295 -0.484036,2.350414 0,4.715883 1.173008,7.05501 -0.236506,0 -0.236506,0 -0.477414,0.242561 0,0 -0.230643,0.235046 -0.4554,0.477611 -0.240194,0.70136 -0.488452,1.656576 -0.488452,2.352297 0.248258,1.656577 0.488452,2.824265 1.18476,4.232626 -0.936502,0.477608 -1.18476,1.415891 -0.936502,2.359828 0.464951,1.643407 1.173008,3.294343 2.345285,4.715875 0.241661,0.229393 0.477437,0.453159 0.708058,0.701362 0.229174,0.229405 0.229174,0.464438 0.229174,0.701357 -0.229174,2.835554 0.24311,5.41726 1.185497,8.000825 -1.185497,1.17333 -1.881068,2.35231 -1.881068,3.99759 -0.241661,1.41967 0.466397,2.36922 1.403632,3.29435 v 0 h 0.236508 c 0,0.24821 0,0.24821 0,0.48325 2.116108,1.41023 4.232178,2.5892 6.360904,3.76254 v 0 c 0.235606,0.47761 0.4714,1.17333 0.4714,1.88596 -0.235794,0.46635 -0.4714,0.9364 -0.4714,1.41589 -0.707383,0.45883 -0.944681,0.93642 -0.707383,1.63778 0.229776,2.58924 1.885411,4.23825 4.939448,4.70648 -0.229023,0.71077 -0.470832,1.41211 0,2.11538 1.657139,4.01451 4.705345,5.65417 9.416337,4.72152 -0.230531,0.70136 -0.230531,1.16768 0,1.65093 0.241057,0.9383 0.943174,2.1041 1.651306,3.05365 0,0 0.229027,0.24259 0.475914,0.24259 -2.588468,2.81672 -5.895222,3.52562 -10.369663,2.35041 -0.707382,0 -1.402917,-0.48137 -2.110298,-0.94204 -2.600124,-1.65096 -5.424387,-3.3019 -8.230898,-4.24394 v 0 c -0.483301,0 -0.724943,0 -0.943101,0.24069 -0.241638,0.23694 -0.719074,0.46068 -0.943833,0.93265 0,0.24633 -0.240192,0.71265 -0.240192,0.94769 -1.180342,0.71454 -1.8884,1.41589 -2.352619,2.35228 -1.421266,0.47196 -2.358481,1.17898 -2.830784,2.35795 -0.470816,0.70325 -0.713192,1.18085 -0.931348,1.40461 -1.903838,1.89163 -3.295716,4.00888 -3.773153,6.59621 0,0 0,0.24255 0,0.47197 v 0.24068 c -0.235775,0.46067 -0.477434,0.93828 -0.477434,1.41588 0,1.17332 -0.465667,2.11726 -0.701439,3.29058 -0.702192,0.46444 -1.173011,1.17898 -1.414672,1.886 -1.409514,2.10973 -1.874451,4.46953 -1.634267,6.81618 0,0.23505 -0.240184,0.47008 -0.240184,0.94207 -0.237246,0.47194 -0.237246,0.94953 -0.237246,1.41023 -0.706593,0.47764 -0.948245,1.18462 -1.184756,1.89162 -0.482569,2.82426 0,4.94151 1.886939,7.05687 1.881817,0.47198 3.767284,0.71266 5.872374,0.94395 0,-0.23127 0.24166,-0.23127 0.477435,-0.23127 0.241641,0 0.701439,-0.24069 0.701439,-0.47195 1.656312,0 3.554282,-0.47573 5.183404,-1.64532 2.121262,-1.42527 4.013346,-3.07059 6.130206,-4.70834 3.525625,-3.0612 7.287045,-5.87795 11.307762,-8.47844 3.525626,-0.22939 6.580414,-0.4776 9.875323,-1.18459 0.465759,-0.23128 0.943175,-0.46632 1.649806,-0.46632 0.702116,-0.23507 1.421157,-0.47197 1.881085,-0.70139 1.644539,1.65094 2.588279,3.29623 3.295659,5.18219 0.47742,0.69573 1.39766,1.17333 2.36358,1.17333 3.98536,0.22942 6.10826,-1.64529 6.81545,-5.8892 -0.22902,0 -0.22902,-0.23691 -0.22902,-0.23691 0,-0.22941 0,-0.22941 0,-0.47196 0,0 0,0 0.22902,0 0.70155,-0.69574 1.17316,-1.40838 1.42134,-1.886 0.47235,-0.22375 0.92554,-0.46631 1.40293,-0.70136 0,0 0,0 0.24237,0 13.87179,-0.22939 24.93868,-5.6485 33.1798,-16.71992 0.94901,-1.40837 1.88617,-2.81864 2.59937,-4.22134 1.88034,-2.12289 3.28475,-4.25144 4.71043,-6.83314 2.11763,-4.47332 4.94676,-8.70781 8.4724,-12.47413 0.70155,-0.71454 1.26568,-1.27107 2.39235,-1.77126 1.2429,-0.62802 1.58794,-0.65624 2.29534,-0.89692 0.81681,0 1.24213,0.23505 2.0992,0.23505 0.4665,0.0338 0.42606,-0.58101 0.42606,-1.44411 0.24013,-1.64529 -0.16168,-3.41655 -0.85797,-5.54509 -1.17296,-2.81676 -2.82935,-4.467685 -4.94603,-5.411602 -0.22997,-0.242564 -0.93736,-0.477594 -1.16715,-0.477594 -1.42567,-0.466344 -3.06588,-0.70139 -4.47386,-0.70139 -1.18555,0.235046 -2.12271,0.483255 -3.0548,0.93642 -4.96973,2.354186 -8.94923,5.885436 -12.25599,10.366276 -0.22414,0.23503 -0.22414,0.23503 -0.22414,0.23503 0,0.2294 0,0.2294 0,0.2294 -0.24295,0.24821 -0.48402,0.24821 -0.71453,0.4776 0,0.23504 0,0.23504 0,0.23504 0,0 0,0.23129 -0.23505,0.23129 v 0.22938 c -0.46651,0.24823 -0.70814,0.48327 -0.93867,0.71455 -0.70077,0.45878 -1.19005,1.17896 -1.64397,1.41403 -1.19138,0.70698 -2.36434,1.17331 -3.54912,1.65091 -0.46051,-0.24066 -0.46051,-0.4776 -0.93716,-0.4776 -0.70814,-0.94395 -1.16789,-1.64529 -1.89219,-2.58734 -4.22697,-8.4728 -7.75921,-17.180611 -9.87024,-25.894068 -2.11613,-8.235861 -6.36588,-15.304039 -12.70974,-21.195123 -0.94467,-0.693843 -1.89292,-1.402731 -2.81916,-2.115378 -3.06497,-2.357936 -5.42347,-4.935875 -7.07403,-7.995177 -0.23654,0 -0.23654,0 -0.23654,0 -0.712459,-1.41401 -1.407993,-2.587339 -2.115939,-3.779469 -0.235794,-0.464443 -0.235794,-0.930766 -0.459928,-1.402729 -0.719041,-2.115375 -0.959912,-4.238272 -0.719041,-6.361169 -0.702116,-2.346656 -1.408747,-4.710236 -2.582451,-6.83125 -0.937345,-1.870933 -1.892179,-3.993829 -2.588466,-6.346127 -0.953329,-2.828021 -2.357751,-5.40972 -4.23376,-7.55142 0,0 -0.245194,0 -0.482493,0 0,0 -0.240118,0 -0.477417,0"
     style="display:inline;fill:#000000;fill-opacity:1;fill-rule:nonzero;stroke:none;stroke-width:0.188032"
     inkscape:label="birdPath" /></svg>
